<svg xmlns="http://www.w3.org/2000/svg" xmlns:xlink="http://www.w3.org/1999/xlink" viewBox="0 0 238.49 235.73"><defs><style>.cls-1{fill:#fff;}.cls-1,.cls-11,.cls-13,.cls-14,.cls-18,.cls-4,.cls-6,.cls-7{fill-rule:evenodd;}.cls-2{fill:#f8b133;}.cls-3{mask:url(#mask);}.cls-4{fill:#b26949;}.cls-5{mask:url(#mask-2);}.cls-6{fill-opacity:0.1;}.cls-7,.cls-9{fill:#b7c1db;}.cls-8{mask:url(#mask-3);}.cls-10{mask:url(#mask-4-2);}.cls-11{fill:#f4f4f4;}.cls-12{mask:url(#mask-5);}.cls-13{fill-opacity:0.16;}.cls-14{fill-opacity:0.7;}.cls-15{mask:url(#mask-6-2);}.cls-16{mask:url(#mask-7);}.cls-17{fill:#ff4f6d;}.cls-18{fill-opacity:0.6;}.cls-19{fill:#11191e;}</style><mask id="mask" x="0" y="-16.27" width="237.6" height="252" maskUnits="userSpaceOnUse"><g id="mask-4"><path id="path-3" class="cls-1" d="M0,127.73v-144H237.6v144H226.8a108,108,0,0,1-216,0H0Z"/></g></mask><mask id="mask-2" x="28.8" y="16.13" width="180" height="219.6" maskUnits="userSpaceOnUse"><g id="mask-6"><path id="path-5" class="cls-1" d="M118.8,16.13a50.39,50.39,0,0,1,50.4,50.4v5.55a10.8,10.8,0,0,1,9,10.65v12.6A10.79,10.79,0,0,1,168.92,106a50.44,50.44,0,0,1-28.52,40.26v16.55H144a64.8,64.8,0,0,1,64.8,64.8v8.1H28.8v-8.1a64.8,64.8,0,0,1,64.8-64.8h3.6V146.28A50.47,50.47,0,0,1,68.67,106,10.79,10.79,0,0,1,59.4,95.33V82.73a10.8,10.8,0,0,1,9-10.65V66.53A50.39,50.39,0,0,1,118.8,16.13Z"/></g></mask><mask id="mask-3" x="0" y="136.73" width="238.49" height="99" maskUnits="userSpaceOnUse"><g id="mask-8"><path id="path-7" class="cls-1" d="M140.4,148.49c16.29,1.83,28.8,6.84,28.8,19.81v-.39a64.81,64.81,0,0,1,39.61,59.72v8.1H28.8v-8.1a64.81,64.81,0,0,1,39.61-59.72c.24-12.68,12.66-17.61,28.79-19.42v17a21.6,21.6,0,0,0,43.2,0h0Z"/></g></mask><mask id="mask-4-2" x="28.8" y="148.49" width="180" height="87.24" maskUnits="userSpaceOnUse"><g id="mask-8-2" data-name="mask-8"><path id="path-7-2" data-name="path-7" class="cls-1" d="M140.4,148.49c16.29,1.83,28.8,6.84,28.8,19.81v-.39a64.81,64.81,0,0,1,39.61,59.72v8.1H28.8v-8.1a64.81,64.81,0,0,1,39.61-59.72c.24-12.68,12.66-17.61,28.79-19.42v17a21.6,21.6,0,0,0,43.2,0h0Z"/></g></mask><mask id="mask-5" x="28.8" y="148.18" width="180" height="87.55" maskUnits="userSpaceOnUse"><g id="mask-8-3" data-name="mask-8"><path id="path-7-3" data-name="path-7" class="cls-1" d="M140.4,148.49c16.29,1.83,28.8,6.84,28.8,19.81v-.39a64.81,64.81,0,0,1,39.61,59.72v8.1H28.8v-8.1a64.81,64.81,0,0,1,39.61-59.72c.24-12.68,12.66-17.61,28.79-19.42v17a21.6,21.6,0,0,0,43.2,0h0Z"/></g></mask><mask id="mask-6-2" x="101.8" y="106.13" width="34.01" height="27" maskUnits="userSpaceOnUse"><g id="mask-10"><path id="path-9" class="cls-1" d="M101.81,117.94a17.1,17.1,0,0,0,34-.08,1.87,1.87,0,0,0-1.66-1.83H103.58A1.91,1.91,0,0,0,101.81,117.94Z"/></g></mask><mask id="mask-7" x="101.8" y="116.03" width="34.01" height="29.7" maskUnits="userSpaceOnUse"><g id="mask-10-2" data-name="mask-10"><path id="path-9-2" data-name="path-9" class="cls-1" d="M101.81,117.94a17.1,17.1,0,0,0,34-.08,1.87,1.87,0,0,0-1.66-1.83H103.58A1.91,1.91,0,0,0,101.81,117.94Z"/></g></mask></defs><g id="Camada_2" data-name="Camada 2"><g id="Camada_1-2" data-name="Camada 1"><g id="Circle"><g id="Circle-Background"><circle id="path-1" class="cls-2" cx="118.8" cy="127.73" r="108"/></g></g><g class="cls-3"><g id="Avataaar"><g id="Body"><path id="path-5-2" data-name="path-5" class="cls-4" d="M118.8,16.13a50.39,50.39,0,0,1,50.4,50.4v5.55a10.8,10.8,0,0,1,9,10.65v12.6A10.79,10.79,0,0,1,168.92,106a50.44,50.44,0,0,1-28.52,40.26v16.55H144a64.8,64.8,0,0,1,64.8,64.8v8.1H28.8v-8.1a64.8,64.8,0,0,1,64.8-64.8h3.6V146.28A50.47,50.47,0,0,1,68.67,106,10.79,10.79,0,0,1,59.4,95.33V82.73a10.8,10.8,0,0,1,9-10.65V66.53A50.39,50.39,0,0,1,118.8,16.13Z"/><g class="cls-5"><path id="Neck-Shadow" class="cls-6" d="M68.4,100.73a50.4,50.4,0,0,0,100.8,0h0v7.2a50.4,50.4,0,0,1-100.8,0Z"/></g></g><g id="Clothing_Hoodie" data-name="Clothing/Hoodie"><g id="Hoodie"><path id="path-7-4" data-name="path-7" class="cls-7" d="M140.4,148.49c16.29,1.83,28.8,6.84,28.8,19.81v-.39a64.81,64.81,0,0,1,39.61,59.72v8.1H28.8v-8.1a64.81,64.81,0,0,1,39.61-59.72c.24-12.68,12.66-17.61,28.79-19.42v17a21.6,21.6,0,0,0,43.2,0h0Z"/></g><g class="cls-8"><g id="Color_Palette_Slate" data-name="Color/Palette/Slate"><rect id="_Color" data-name="ðŸ–Color" class="cls-9" y="136.73" width="238.49" height="99"/></g></g><g class="cls-10"><path id="Straps" class="cls-11" d="M91.8,192.29v43.44H85.5V189.06A57.3,57.3,0,0,0,91.8,192.29Zm60.3-3.23v36.32a3.15,3.15,0,0,1-6.3,0V192.29A57.3,57.3,0,0,0,152.1,189.06Z"/></g><g class="cls-12"><path id="Shadow" class="cls-13" d="M155.73,148.18c13.55,2.56,22.92,7.67,22.92,17.63,0,17.74-29.73,32.12-59.85,32.12S59,183.55,59,165.81c0-10,9.37-15.07,22.92-17.63-8.18,3-13.47,8.08-13.47,16.52,0,18.35,25,33.23,50.4,33.23s50.4-14.88,50.4-33.23c0-8.26-5.07-13.29-13-16.33Z"/></g></g><g id="Face"><g id="Mouth_Smile" data-name="Mouth/Smile"><g id="Mouth"><path id="path-9-3" data-name="path-9" class="cls-14" d="M101.81,117.94a17.1,17.1,0,0,0,34-.08,1.87,1.87,0,0,0-1.66-1.83H103.58A1.91,1.91,0,0,0,101.81,117.94Z"/></g><g class="cls-15"><path id="Teeth" class="cls-1" d="M109.8,106.13h18.9a4.49,4.49,0,0,1,4.5,4.5V116a4.5,4.5,0,0,1-4.5,4.5H109.8a4.5,4.5,0,0,1-4.5-4.5v-5.4A4.49,4.49,0,0,1,109.8,106.13Z"/></g><g class="cls-16"><g id="Tongue"><circle class="cls-17" cx="114.3" cy="135.83" r="9.9"/><circle class="cls-17" cx="123.3" cy="135.83" r="9.9"/></g></g></g><g id="Nose_Default" data-name="Nose/Default"><path id="Nose" class="cls-13" d="M108,100.73c0,4,4.84,7.2,10.8,7.2h0c6,0,10.8-3.22,10.8-7.2"/></g><g id="Eyes_Happy-_" data-name="Eyes/Happy-ðŸ˜"><path id="Squint" class="cls-18" d="M82.94,84.93a11.1,11.1,0,0,1,19.49,0c.5,1-.21,1.83-.92,1.22A13.51,13.51,0,0,0,92.7,83a13.66,13.66,0,0,0-8.61,2.9C83.29,86.6,82.46,85.93,82.94,84.93Z"/><path id="Squint-2" data-name="Squint" class="cls-18" d="M135.14,84.93a11.1,11.1,0,0,1,19.49,0c.5,1-.21,1.83-.92,1.22A13.51,13.51,0,0,0,144.9,83a13.66,13.66,0,0,0-8.61,2.9C135.49,86.6,134.66,85.93,135.14,84.93Z"/></g><g id="Eyebrow_Natural_Default-Natural" data-name="Eyebrow/Natural/Default-Natural"><path id="Eyebrow" class="cls-18" d="M92.29,63.06c-5.22.24-13.67,4-13.46,9.31a.23.23,0,0,0,.39.12c2.48-2.67,20.08-5.36,26.28-3.93.57.13,1-.43.64-.83-3.08-3.47-9.17-4.89-13.85-4.67"/><path id="Eyebrow-2" data-name="Eyebrow" class="cls-18" d="M146.21,63.06c5.22.24,13.67,4,13.46,9.31a.23.23,0,0,1-.39.12c-2.48-2.67-20.08-5.36-26.28-3.93-.57.13-1-.43-.64-.83,3.08-3.47,9.17-4.89,13.85-4.67"/></g></g></g></g><path class="cls-19" d="M67.39,71a61.46,61.46,0,0,1-.68-9.12c-.45-3.19.2-6.41-.34-9.59l0-.8c.45-1.74-.13-3.55.31-5.3.18-1.69.38-3.38.52-5.08.12-1.4.14-2.64-1.17-3.77s-.74-2.26,1.25-3.26,2-1,1-2.51c-1.88-2.68-1.6-3.77,1.37-5.1.74-.33,1.54-.53,2.25-.91s1.16-.77.3-1.49a2,2,0,0,1-.76-2.58,2.83,2.83,0,0,1,2.68-1.32h.22c3.48-.14,5.09-2,4.94-5.54a21.87,21.87,0,0,1-.06-3.13c.22-2.13,1.37-2.83,3.37-2.14a19.71,19.71,0,0,1,2.46,1c1.75.9,2.65,0,3.25-1.49a9.17,9.17,0,0,0,.4-1.74c.68-3.39,1.87-3.93,4.64-2.08,2.42,1.63,3.77,1.23,4.8-1.39,1.3-3.28,2.59-3.6,5-1.08a1.68,1.68,0,0,0,2.5.32,20,20,0,0,0,1.84-1.27c2.33-2.11,4.73-2.19,7.3-.43a6.11,6.11,0,0,0,6.42.56,3.38,3.38,0,0,1,3.51.56c3.59,3.54,3.63-2.36,6.63.64,1,1,3.31,2.69,4,2,1-1,7-2,7,2,0,3,.43,3.32,4.1,2.44.36-.08.73-.13,1.09-.23,3.14-.84,4.71.28,3.61,3.6-1.15,3.48-.9,3.57,2.68,2.51,3.76-1.11,5.08,0,4.44,3.85-.08.43-.12.87-.18,1.4,2.31.42,4.43-1,6.75-.36a3,3,0,0,1,2,4.12,5.83,5.83,0,0,0,.48,5.85,39.49,39.49,0,0,1,2,8.79,16.24,16.24,0,0,1-.35,6.18,2.6,2.6,0,0,1-1.74,1.63,2.24,2.24,0,0,1-1.51,0c-.62-.22-1.51-.53-1.92-.74-3.72-1.87-7.43-3.75-11-5.82a49,49,0,0,0-22.39-6.5c-4.55-.22-9.09-.44-13.63-.34A84.19,84.19,0,0,0,77.41,44.05a9.13,9.13,0,0,0-5.06,7.38,63.68,63.68,0,0,0-.89,11.36,44.78,44.78,0,0,1-.54,7.13,4.89,4.89,0,0,1-.77,2.32c-.39.57-.89,1.14-1.64.86S67.1,71.62,67.39,71Z"/><path class="cls-19" d="M170.68,71.91c-1.12,1.75-1.73.75-2.21-.45-1-2.6-.95-5.41-1.42-8.12-.82-4.78-1.67-9.54-4.33-13.73a1.5,1.5,0,0,1-.05-1.87c.58-.73,1.25-.26,1.82,0,.82.37,1.61.81,2.4,1.23a4.89,4.89,0,0,1,.72.46,7.68,7.68,0,0,1,2.62,4.79C171.37,60.09,172,66,170.68,71.91Z"/></g></g></svg>