<svg xmlns="http://www.w3.org/2000/svg" viewBox="0 0 206.41 294.87"><defs><style>.cls-1{fill:#b1740a;}.cls-2{fill:#f8b133;}</style></defs><g id="Camada_2" data-name="Camada 2"><g id="Camada_1-2" data-name="Camada 1"><path class="cls-1" d="M116,245.87l-95.43-1.12c-5-.06-10.56-3.7-14.26-9.32l-2.42-3.68c-3.63-5.53-4.81-12-3-16.57l35.25-90.3c3.43-8.79,15.44-6.74,22.39,3.81h0c3.78,5.74,4.88,12.45,2.8,17.06L29.18,216.86l.54.82,76.37-3.43c5.1-.23,11,3.45,14.83,9.31l.15.23C128,234.23,125.22,246,116,245.87Z"/><path class="cls-1" d="M90.37,51l95.44.81c5,.05,10.57,3.67,14.29,9.28l2.43,3.67c3.65,5.51,4.85,12,3.06,16.55l-35,90.42c-3.4,8.8-15.41,6.79-22.4-3.74h0c-3.8-5.73-4.92-12.44-2.86-17l31.86-71.22-.53-.81-76.36,3.68c-5.1.24-11-3.43-14.86-9.27l-.16-.23C78.42,62.69,81.1,50.94,90.37,51Z"/><path class="cls-2" d="M29.42,278,151.53,8c2.17-4.8,7.59-8,13.63-8h1.17C176.59,0,183.65,8.77,180,16.91l-122.55,270c-2.17,4.79-7.59,7.95-13.63,7.95h-.72C32.8,294.87,25.74,286.12,29.42,278Z"/></g></g></svg>